<svg version="1.1" viewBox="0.0 0.0 969.2598425196851 377.90813648293965" fill="none" stroke="none" stroke-linecap="square" stroke-miterlimit="10" xmlns:xlink="http://www.w3.org/1999/xlink" xmlns="http://www.w3.org/2000/svg"><clipPath id="p.0"><path d="m0 0l969.2598 0l0 377.90814l-969.2598 0l0 -377.90814z" clip-rule="nonzero"/></clipPath><g clip-path="url(#p.0)"><path fill="#000000" fill-opacity="0.0" d="m0 0l969.2598 0l0 377.90814l-969.2598 0z" fill-rule="evenodd"/><path fill="#f0f3ff" d="m-0.4566929 0l969.2598 0l0 377.92126l-969.2598 0z" fill-rule="evenodd"/><path fill="#000000" fill-opacity="0.0" d="m395.65353 145.41208l576.31494 0l0 80.7874l-576.31494 0z" fill-rule="evenodd"/><path fill="#000000" d="m433.68478 212.67708l-3.65625 -5.875q-0.953125 -1.625 -2.578125 -2.484375q-1.625 -0.859375 -3.796875 -0.859375l2.015625 -1.015625q1.625 0 2.734375 0.359375q1.125 0.34375 2.0 1.203125q0.890625 0.875 1.8125 2.484375l3.140625 5.078125l-1.671875 1.109375zm-10.03125 -9.21875q-3.59375 0 -6.484375 -1.265625q-2.890625 -1.265625 -4.921875 -3.640625q-2.015625 -2.390625 -3.109375 -5.75q-1.09375 -3.375 -1.09375 -7.625q0 -4.265625 1.0625 -7.625q1.0625 -3.375 3.09375 -5.71875q2.03125 -2.359375 4.90625 -3.625q2.890625 -1.28125 6.546875 -1.28125q3.640625 0 6.53125 1.25q2.890625 1.234375 4.9375 3.625q2.046875 2.375 3.109375 5.75q1.078125 3.359375 1.078125 7.5625q0 4.265625 -1.09375 7.65625q-1.09375 3.390625 -3.125 5.78125q-2.015625 2.375 -4.90625 3.640625q-2.890625 1.265625 -6.53125 1.265625zm0 -2.078125q4.25 0 7.234375 -1.890625q3.0 -1.90625 4.5625 -5.53125q1.578125 -3.625 1.578125 -8.78125q0 -5.171875 -1.578125 -8.765625q-1.5625 -3.59375 -4.53125 -5.5q-2.96875 -1.90625 -7.265625 -1.90625q-4.203125 0 -7.203125 1.90625q-2.984375 1.90625 -4.5625 5.53125q-1.5625 3.609375 -1.5625 8.734375q0 5.109375 1.5625 8.734375q1.578125 3.625 4.5625 5.546875q3.0 1.921875 7.203125 1.921875zm31.902283 2.078125q-2.875 0 -4.8125 -1.0625q-1.921875 -1.0625 -2.890625 -3.140625q-0.953125 -2.078125 -0.953125 -5.171875l0 -15.546875l2.125 0l0 15.34375q0 2.59375 0.6875 4.296875q0.6875 1.6875 2.15625 2.5q1.46875 0.796875 3.6875 0.796875q2.484375 0 4.328125 -1.109375q1.859375 -1.109375 2.921875 -3.109375q1.0625 -2.0 1.0625 -4.6875l0 -14.03125l2.125 0l0 24.515625l-2.078125 0l0 -6.125l0.609375 0q-0.953125 3.1875 -3.390625 4.859375q-2.4375 1.671875 -5.578125 1.671875zm26.451447 0q-2.375 0 -4.3125 -0.953125q-1.921875 -0.96875 -3.046875 -2.609375q-1.109375 -1.65625 -1.109375 -3.6875q0 -2.734375 1.34375 -4.28125q1.34375 -1.546875 4.609375 -2.171875q3.28125 -0.640625 9.0 -0.640625l2.078125 0l0 1.875l-1.984375 0q-3.75 0 -6.234375 0.234375q-2.46875 0.234375 -3.890625 0.8125q-1.421875 0.578125 -2.0 1.546875q-0.578125 0.953125 -0.578125 2.421875q0 2.4375 1.6875 3.984375q1.703125 1.546875 4.59375 1.546875q2.328125 0 4.0625 -1.140625q1.75 -1.140625 2.765625 -3.09375q1.015625 -1.953125 1.015625 -4.4375l0 -5.765625q0 -3.65625 -1.421875 -5.328125q-1.40625 -1.671875 -4.546875 -1.671875q-2.28125 0 -4.28125 0.671875q-2.0 0.65625 -4.1875 2.125l-1.015625 -1.828125q1.328125 -0.90625 2.859375 -1.5625q1.546875 -0.671875 3.21875 -1.015625q1.671875 -0.359375 3.296875 -0.359375q2.78125 0 4.609375 0.96875q1.828125 0.953125 2.703125 2.9375q0.890625 1.96875 0.890625 5.0625l0 15.953125l-2.078125 0l0 -6.125l0.5625 0q-0.5 2.015625 -1.71875 3.484375q-1.21875 1.46875 -2.96875 2.265625q-1.75 0.78125 -3.921875 0.78125zm27.912354 0q-3.296875 0 -5.75 -1.546875q-2.453125 -1.546875 -3.796875 -4.40625q-1.34375 -2.859375 -1.34375 -6.71875q0 -3.890625 1.3125 -6.71875q1.3125 -2.84375 3.765625 -4.390625q2.46875 -1.546875 5.8125 -1.546875q3.546875 0 6.03125 1.828125q2.484375 1.8125 3.28125 4.953125l-0.546875 0l0 -17.578125l2.125 0l0 35.71875l-2.125 0l0 -6.375l0.546875 0q-0.796875 3.078125 -3.28125 4.9375q-2.484375 1.84375 -6.03125 1.84375zm0.046875 -1.984375q4.046875 0 6.40625 -2.796875q2.359375 -2.8125 2.359375 -7.890625q0 -5.0625 -2.359375 -7.875q-2.359375 -2.8125 -6.40625 -2.8125q-4.0 0 -6.390625 2.8125q-2.375 2.8125 -2.375 7.875q0 5.078125 2.375 7.890625q2.390625 2.796875 6.390625 2.796875zm28.929016 1.578125l0 -33.734375l-13.625 0l0 -1.984375l29.375 0l0 1.984375l-13.625 0l0 33.734375l-2.125 0zm16.415894 0l0 -24.515625l2.0625 0l0 5.71875l-0.5 0q1.015625 -2.984375 3.1875 -4.46875q2.1875 -1.5 5.734375 -1.765625l1.0625 -0.09375l0.25 1.921875l-1.71875 0.203125q-3.75 0.359375 -5.859375 2.546875q-2.09375 2.171875 -2.09375 5.765625l0 14.6875l-2.125 0zm26.483154 0.40625q-3.640625 0 -6.28125 -1.515625q-2.625 -1.53125 -4.078125 -4.328125q-1.4375 -2.8125 -1.4375 -6.71875q0 -3.84375 1.4375 -6.703125q1.453125 -2.875 4.0 -4.46875q2.5625 -1.59375 5.90625 -1.59375q3.1875 0 5.421875 1.421875q2.234375 1.40625 3.421875 4.015625q1.1875 2.609375 1.1875 6.3125l0 1.3125l-20.015625 0l0 -1.875l18.90625 0l-0.859375 0.609375q0 -4.609375 -2.03125 -7.234375q-2.03125 -2.640625 -6.078125 -2.640625q-2.9375 0 -5.0 1.390625q-2.046875 1.390625 -3.09375 3.78125q-1.03125 2.375 -1.03125 5.421875l0 0.25q0 3.34375 1.109375 5.734375q1.125 2.375 3.265625 3.609375q2.15625 1.234375 5.15625 1.234375q2.28125 0 4.28125 -0.734375q2.0 -0.734375 3.96875 -2.453125l1.015625 1.71875q-1.5625 1.578125 -4.046875 2.515625q-2.484375 0.9375 -5.125 0.9375zm26.493225 0q-3.640625 0 -6.28125 -1.515625q-2.625 -1.53125 -4.078125 -4.328125q-1.4375 -2.8125 -1.4375 -6.71875q0 -3.84375 1.4375 -6.703125q1.453125 -2.875 4.0 -4.46875q2.5625 -1.59375 5.90625 -1.59375q3.1875 0 5.421875 1.421875q2.234375 1.40625 3.421875 4.015625q1.1875 2.609375 1.1875 6.3125l0 1.3125l-20.015625 0l0 -1.875l18.90625 0l-0.859375 0.609375q0 -4.609375 -2.03125 -7.234375q-2.03125 -2.640625 -6.078125 -2.640625q-2.9375 0 -5.0 1.390625q-2.046875 1.390625 -3.09375 3.78125q-1.03125 2.375 -1.03125 5.421875l0 0.25q0 3.34375 1.109375 5.734375q1.125 2.375 3.265625 3.609375q2.15625 1.234375 5.15625 1.234375q2.28125 0 4.28125 -0.734375q2.0 -0.734375 3.96875 -2.453125l1.015625 1.71875q-1.5625 1.578125 -4.046875 2.515625q-2.484375 0.9375 -5.125 0.9375zm29.329712 -0.40625l0 -35.71875l2.125 0l0 35.71875l-2.125 0zm11.400452 0l0 -24.515625l2.078125 0l0 5.96875l-0.5625 0q0.609375 -2.0625 1.796875 -3.484375q1.203125 -1.421875 2.875 -2.15625q1.671875 -0.734375 3.6875 -0.734375q3.296875 0 5.25 1.59375q1.953125 1.59375 2.5 4.84375l-0.75 0q0.8125 -2.9375 3.15625 -4.6875q2.359375 -1.75 5.65625 -1.75q2.6875 0 4.453125 1.046875q1.78125 1.03125 2.6875 3.078125q0.90625 2.046875 0.90625 5.1875l0 15.609375l-2.125 0l0 -15.40625q0 -3.890625 -1.390625 -5.71875q-1.390625 -1.828125 -4.640625 -1.828125q-2.328125 0 -4.046875 1.09375q-1.71875 1.09375 -2.65625 3.09375q-0.9375 2.0 -0.9375 4.6875l0 14.078125l-2.125 0l0 -15.40625q0 -3.890625 -1.40625 -5.71875q-1.390625 -1.828125 -4.625 -1.828125q-2.328125 0 -4.0625 1.09375q-1.71875 1.09375 -2.65625 3.09375q-0.9375 2.0 -0.9375 4.6875l0 14.078125l-2.125 0zm49.746887 0.40625q-2.375 0 -4.3125 -0.953125q-1.921875 -0.96875 -3.046875 -2.609375q-1.109375 -1.65625 -1.109375 -3.6875q0 -2.734375 1.34375 -4.28125q1.34375 -1.546875 4.609375 -2.171875q3.28125 -0.640625 9.0 -0.640625l2.078125 0l0 1.875l-1.984375 0q-3.75 0 -6.234375 0.234375q-2.46875 0.234375 -3.890625 0.8125q-1.421875 0.578125 -2.0 1.546875q-0.578125 0.953125 -0.578125 2.421875q0 2.4375 1.6875 3.984375q1.703125 1.546875 4.59375 1.546875q2.328125 0 4.0625 -1.140625q1.75 -1.140625 2.765625 -3.09375q1.015625 -1.953125 1.015625 -4.4375l0 -5.765625q0 -3.65625 -1.421875 -5.328125q-1.40625 -1.671875 -4.546875 -1.671875q-2.28125 0 -4.28125 0.671875q-2.0 0.65625 -4.1875 2.125l-1.015625 -1.828125q1.328125 -0.90625 2.859375 -1.5625q1.546875 -0.671875 3.21875 -1.015625q1.671875 -0.359375 3.296875 -0.359375q2.78125 0 4.609375 0.96875q1.828125 0.953125 2.703125 2.9375q0.890625 1.96875 0.890625 5.0625l0 15.953125l-2.078125 0l0 -6.125l0.5625 0q-0.5 2.015625 -1.71875 3.484375q-1.21875 1.46875 -2.96875 2.265625q-1.75 0.78125 -3.921875 0.78125zm29.021729 9.109375q-3.03125 0 -5.640625 -0.890625q-2.609375 -0.875 -4.734375 -2.59375l1.0 -1.71875q1.625 1.15625 3.046875 1.890625q1.421875 0.734375 2.953125 1.03125q1.546875 0.3125 3.421875 0.3125q3.8125 0 5.78125 -2.15625q1.96875 -2.15625 1.96875 -6.15625l0 -6.734375l0.515625 0q-0.71875 3.25 -3.25 5.09375q-2.53125 1.84375 -6.015625 1.84375q-3.40625 0 -5.890625 -1.53125q-2.46875 -1.546875 -3.8125 -4.3125q-1.34375 -2.765625 -1.34375 -6.359375q0 -3.640625 1.34375 -6.375q1.34375 -2.75 3.8125 -4.265625q2.484375 -1.515625 5.890625 -1.515625q3.484375 0 6.015625 1.859375q2.53125 1.84375 3.25 5.078125l-0.5625 0l0 -6.53125l2.125 0l0 23.40625q0 3.484375 -1.109375 5.859375q-1.109375 2.390625 -3.296875 3.578125q-2.171875 1.1875 -5.46875 1.1875zm-1.015625 -12.046875q4.0625 0 6.4375 -2.78125q2.375 -2.796875 2.375 -7.453125q0 -4.65625 -2.375 -7.421875q-2.375 -2.765625 -6.4375 -2.765625q-4.046875 0 -6.4375 2.765625q-2.375 2.765625 -2.375 7.421875q0 4.65625 2.375 7.453125q2.390625 2.78125 6.4375 2.78125zm29.686584 2.9375q-3.640625 0 -6.28125 -1.515625q-2.625 -1.53125 -4.078125 -4.328125q-1.4375 -2.8125 -1.4375 -6.71875q0 -3.84375 1.4375 -6.703125q1.453125 -2.875 4.0 -4.46875q2.5625 -1.59375 5.90625 -1.59375q3.1875 0 5.421875 1.421875q2.234375 1.40625 3.421875 4.015625q1.1875 2.609375 1.1875 6.3125l0 1.3125l-20.015625 0l0 -1.875l18.90625 0l-0.859375 0.609375q0 -4.609375 -2.03125 -7.234375q-2.03125 -2.640625 -6.078125 -2.640625q-2.9375 0 -5.0 1.390625q-2.046875 1.390625 -3.09375 3.78125q-1.03125 2.375 -1.03125 5.421875l0 0.25q0 3.34375 1.109375 5.734375q1.125 2.375 3.265625 3.609375q2.15625 1.234375 5.15625 1.234375q2.28125 0 4.28125 -0.734375q2.0 -0.734375 3.96875 -2.453125l1.015625 1.71875q-1.5625 1.578125 -4.046875 2.515625q-2.484375 0.9375 -5.125 0.9375zm29.329712 -0.40625l0 -35.71875l20.96875 0l0 1.984375l-18.84375 0l0 14.640625l17.84375 0l0 1.96875l-17.84375 0l0 17.125l-2.125 0zm34.904053 0.40625q-3.34375 0 -5.796875 -1.5625q-2.453125 -1.578125 -3.796875 -4.40625q-1.34375 -2.84375 -1.34375 -6.703125q0 -3.84375 1.34375 -6.671875q1.34375 -2.84375 3.796875 -4.40625q2.453125 -1.578125 5.796875 -1.578125q3.34375 0 5.796875 1.578125q2.46875 1.5625 3.796875 4.40625q1.34375 2.828125 1.34375 6.671875q0 3.859375 -1.34375 6.703125q-1.328125 2.828125 -3.796875 4.40625q-2.453125 1.5625 -5.796875 1.5625zm0 -1.984375q4.046875 0 6.40625 -2.796875q2.359375 -2.8125 2.359375 -7.890625q0 -5.0625 -2.359375 -7.875q-2.359375 -2.8125 -6.40625 -2.8125q-4.0 0 -6.390625 2.8125q-2.375 2.8125 -2.375 7.875q0 5.078125 2.375 7.890625q2.390625 2.796875 6.390625 2.796875zm17.940613 1.578125l0 -24.515625l2.0625 0l0 5.71875l-0.5 0q1.015625 -2.984375 3.1875 -4.46875q2.1875 -1.5 5.734375 -1.765625l1.0625 -0.09375l0.25 1.921875l-1.71875 0.203125q-3.75 0.359375 -5.859375 2.546875q-2.09375 2.171875 -2.09375 5.765625l0 14.6875l-2.125 0zm16.658386 0l0 -24.515625l2.078125 0l0 5.96875l-0.5625 0q0.609375 -2.0625 1.796875 -3.484375q1.203125 -1.421875 2.875 -2.15625q1.671875 -0.734375 3.6875 -0.734375q3.296875 0 5.25 1.59375q1.953125 1.59375 2.5 4.84375l-0.75 0q0.8125 -2.9375 3.15625 -4.6875q2.359375 -1.75 5.65625 -1.75q2.6875 0 4.453125 1.046875q1.78125 1.03125 2.6875 3.078125q0.90625 2.046875 0.90625 5.1875l0 15.609375l-2.125 0l0 -15.40625q0 -3.890625 -1.390625 -5.71875q-1.390625 -1.828125 -4.640625 -1.828125q-2.328125 0 -4.046875 1.09375q-1.71875 1.09375 -2.65625 3.09375q-0.9375 2.0 -0.9375 4.6875l0 14.078125l-2.125 0l0 -15.40625q0 -3.890625 -1.40625 -5.71875q-1.390625 -1.828125 -4.625 -1.828125q-2.328125 0 -4.0625 1.09375q-1.71875 1.09375 -2.65625 3.09375q-0.9375 2.0 -0.9375 4.6875l0 14.078125l-2.125 0zm49.746887 0.40625q-2.375 0 -4.3125 -0.953125q-1.921875 -0.96875 -3.046875 -2.609375q-1.109375 -1.65625 -1.109375 -3.6875q0 -2.734375 1.34375 -4.28125q1.34375 -1.546875 4.609375 -2.171875q3.28125 -0.640625 9.0 -0.640625l2.078125 0l0 1.875l-1.984375 0q-3.75 0 -6.234375 0.234375q-2.46875 0.234375 -3.890625 0.8125q-1.421875 0.578125 -2.0 1.546875q-0.578125 0.953125 -0.578125 2.421875q0 2.4375 1.6875 3.984375q1.703125 1.546875 4.59375 1.546875q2.328125 0 4.0625 -1.140625q1.75 -1.140625 2.765625 -3.09375q1.015625 -1.953125 1.015625 -4.4375l0 -5.765625q0 -3.65625 -1.421875 -5.328125q-1.40625 -1.671875 -4.546875 -1.671875q-2.28125 0 -4.28125 0.671875q-2.0 0.65625 -4.1875 2.125l-1.015625 -1.828125q1.328125 -0.90625 2.859375 -1.5625q1.546875 -0.671875 3.21875 -1.015625q1.671875 -0.359375 3.296875 -0.359375q2.78125 0 4.609375 0.96875q1.828125 0.953125 2.703125 2.9375q0.890625 1.96875 0.890625 5.0625l0 15.953125l-2.078125 0l0 -6.125l0.5625 0q-0.5 2.015625 -1.71875 3.484375q-1.21875 1.46875 -2.96875 2.265625q-1.75 0.78125 -3.921875 0.78125zm27.256104 0q-3.859375 0 -5.78125 -2.171875q-1.921875 -2.1875 -1.921875 -6.140625l0 -14.78125l-4.921875 0l0 -1.828125l4.921875 0l0 -7.65625l2.125 0l0 7.65625l8.0625 0l0 1.828125l-8.0625 0l0 14.328125q0 3.296875 1.3125 5.046875q1.328125 1.734375 4.40625 1.734375q0.921875 0 1.75 -0.21875q0.84375 -0.234375 1.390625 -0.4375l0.515625 1.78125q-0.453125 0.296875 -1.625 0.578125q-1.15625 0.28125 -2.171875 0.28125z" fill-rule="nonzero"/><path fill="#cfe2f3" d="m0 0l189.13387 0l0 189.13387l-189.13387 0z" fill-rule="evenodd"/><path fill="#667ef3" d="m0 189.13387l189.13387 0l0 189.13387l-189.13387 0z" fill-rule="evenodd"/><path fill="#6983fd" d="m189.13387 -0.15748031l189.13387 0l0 189.13387l-189.13387 0z" fill-rule="evenodd"/><path fill="#4361ee" d="m189.13387 188.97638l189.13387 0l0 189.13385l-189.13387 0z" fill-rule="evenodd"/><path fill="#cfe2f3" d="m0 -0.15748031l94.07874 0l0 94.078735l-94.07874 0z" fill-rule="evenodd"/><path fill="#869af7" d="m0 94.48819l94.07874 0l0 94.078735l-94.07874 0z" fill-rule="evenodd"/><path fill="#8fa1f8" d="m94.56693 -0.15748031l94.07874 0l0 94.078735l-94.07874 0z" fill-rule="evenodd"/><path fill="#868cf7" d="m94.56693 94.48819l94.07874 0l0 94.078735l-94.07874 0z" fill-rule="evenodd"/><path fill="#d3dbff" d="m0 -0.15748031l47.05512 0l0 47.05512l-47.05512 0z" fill-rule="evenodd"/><path fill="#869af7" d="m47.05512 0l47.05512 0l0 47.05512l-47.05512 0z" fill-rule="evenodd"/><path fill="#869af7" d="m0 46.866142l47.05512 0l0 47.055115l-47.05512 0z" fill-rule="evenodd"/><path fill="#6983fd" d="m47.05512 46.889874l47.05512 0l0 47.05512l-47.05512 0z" fill-rule="evenodd"/></g></svg>